<svg width="26" height="23" viewBox="0 0 26 23" fill="none" xmlns="http://www.w3.org/2000/svg">
<path fill-rule="evenodd" clip-rule="evenodd" d="M23.4989 2.30656C23.8594 1.94608 23.8594 1.36162 23.4989 1.00114C23.1384 0.640653 22.5539 0.640653 22.1934 1.00114L2.50113 20.6934C2.14065 21.0539 2.14065 21.6384 2.50113 21.9989C2.86162 22.3594 3.44608 22.3594 3.80656 21.9989L7.31043 18.495C8.99204 19.2866 10.9288 19.8077 13 19.8077C16.3034 19.8077 19.265 18.4821 21.3946 16.8477C22.4614 16.0289 23.3424 15.1155 23.9648 14.2186C24.57 13.3465 25 12.3895 25 11.5C25 10.6105 24.57 9.6535 23.9648 8.78142C23.3424 7.88455 22.4614 6.97112 21.3946 6.15235C21.072 5.90474 20.7302 5.66422 20.3711 5.43432L23.4989 2.30656ZM19.0302 6.77524L16.8507 8.95472C17.334 9.68435 17.6154 10.5593 17.6154 11.5C17.6154 14.049 15.549 16.1154 13 16.1154C12.0593 16.1154 11.1843 15.834 10.4547 15.3507L8.71106 17.0944C10.0225 17.6286 11.4765 17.9615 13 17.9615C15.8142 17.9615 18.391 16.8256 20.2706 15.3831C21.2083 14.6634 21.9495 13.8846 22.4481 13.166C22.9639 12.4227 23.1538 11.8413 23.1538 11.5C23.1538 11.1587 22.9639 10.5773 22.4481 9.83398C21.9495 9.11546 21.2083 8.33658 20.2706 7.61689C19.8851 7.32106 19.4703 7.03812 19.0302 6.77524ZM11.8061 13.9994C12.1676 14.1724 12.5725 14.2692 13 14.2692C14.5294 14.2692 15.7692 13.0294 15.7692 11.5C15.7692 11.0725 15.6724 10.6676 15.4994 10.3061L11.8061 13.9994Z" fill="#807D7D"/>
<path d="M13 3.19231C14.2706 3.19231 15.4906 3.38843 16.6322 3.72279C16.8518 3.78712 16.9172 4.062 16.7554 4.22382L15.7405 5.23866C15.6644 5.31478 15.5541 5.34528 15.4492 5.32114C14.6622 5.14009 13.8417 5.03847 13 5.03847C10.1858 5.03847 7.60896 6.17437 5.72944 7.61689C4.79172 8.33658 4.05055 9.11546 3.55191 9.83398C3.03607 10.5773 2.84615 11.1587 2.84615 11.5C2.84615 11.8413 3.03607 12.4227 3.55191 13.166C3.98739 13.7935 4.60785 14.4671 5.38266 15.107C5.52525 15.2248 5.53884 15.4404 5.40807 15.5711L4.53556 16.4436C4.42441 16.5548 4.24706 16.5645 4.12661 16.4635C3.27372 15.7483 2.56188 14.9775 2.0352 14.2186C1.42999 13.3465 1 12.3895 1 11.5C1 10.6105 1.42999 9.6535 2.0352 8.78142C2.65761 7.88455 3.53861 6.97112 4.60542 6.15235C6.73496 4.51795 9.6966 3.19231 13 3.19231Z" fill="#807D7D"/>
<path d="M13 6.88462C13.1458 6.88462 13.29 6.89138 13.4324 6.90461C13.6747 6.92712 13.7624 7.21681 13.5903 7.38887L12.0983 8.88089C11.2942 9.15765 10.6576 9.79425 10.3809 10.5983L8.88887 12.0903C8.71681 12.2624 8.42711 12.1747 8.4046 11.9324C8.39138 11.79 8.38462 11.6458 8.38462 11.5C8.38462 8.951 10.451 6.88462 13 6.88462Z" fill="#807D7D"/>
</svg>
