<svg width="18" height="18" viewBox="0 0 18 18" fill="none" xmlns="http://www.w3.org/2000/svg">
<path d="M9.00464 3.77207C9.03379 3.01678 9.28296 1.90414 10.1501 1.17319C10.9551 0.494682 11.935 0.163995 12.5453 0.0128174C12.7809 -0.0455464 13.007 0.102803 12.9954 0.307782C12.9545 1.03081 12.7268 2.10926 12.1393 2.687C11.5855 3.23162 10.6946 3.95383 9.38965 4.07534C9.17607 4.09523 8.99771 3.95142 9.00464 3.77207Z" fill="#0D7291"/>
<path d="M11.2391 17.5963C11.8657 17.7967 12.4993 17.9994 13.0726 17.9994C14.2993 17.9994 17.871 15.6364 17.9997 13.1822C18.0063 13.0561 17.9161 12.9436 17.7842 12.882C16.8757 12.4575 15.3921 11.4005 15.3404 9.8628C15.2803 8.07079 16.3579 6.64746 17.1734 6.05869C17.357 5.92618 17.42 5.69253 17.2562 5.54311C16.5141 4.8665 15.0213 3.93582 13.6593 3.95867C12.6684 3.97529 11.7756 4.28348 11.0094 4.54795C10.4217 4.75084 9.90845 4.928 9.48271 4.928C9.07946 4.928 8.59536 4.75198 8.03975 4.54996C7.2915 4.27789 6.41355 3.95867 5.4287 3.95867C3.60444 3.95867 8.15944e-06 5.22174 0 10.0978C-4.32547e-06 12.6827 3.19593 18.0679 5.89277 17.9994C6.47511 17.9994 7.09745 17.798 7.71501 17.5982C8.32314 17.4015 8.92663 17.2063 9.48271 17.2063C10.0196 17.2063 10.626 17.4002 11.2391 17.5963Z" fill="#0D7291"/>
</svg>
