<svg xmlns="http://www.w3.org/2000/svg" width="72" height="73" viewBox="0 0 72 73" fill="none">
    <path
        d="M36 72.5C55.8822 72.5 72 56.3822 72 36.5C72 16.6178 55.8822 0.5 36 0.5C16.1177 0.5 0 16.6178 0 36.5C0 56.3822 16.1177 72.5 36 72.5Z"
        fill="#E6E6E6" />
    <path
        d="M35 39.8333C41.0751 39.8333 46 35.0577 46 29.1667C46 23.2756 41.0751 18.5 35 18.5C28.9249 18.5 24 23.2756 24 29.1667C24 35.0577 28.9249 39.8333 35 39.8333Z"
        fill="#9E616A" />
    <path
        d="M62.6667 60.316C56.3926 67.3855 47.5628 71.7282 38.0834 72.4067C28.604 73.0851 19.2354 70.0448 12 63.9421L15.1062 55.3589C15.8082 53.8344 16.9159 52.5279 18.3107 51.5795C19.7054 50.631 21.3345 50.0764 23.0234 49.9751L24.9995 49.855L29.7115 45.8305C29.7115 45.8305 42.4076 45.3816 42.2193 45.1667L49.9098 49.7475L49.9034 49.7159L52.9266 49.8992C54.6156 50.0001 56.2449 50.5545 57.6397 51.503C59.0346 52.4516 60.1422 53.7583 60.8438 55.2831L62.6667 60.316Z"
        fill="#BF3685" />
    <path
        d="M15.7321 55.4477L12.6667 63.9871C18.0138 68.534 24.5415 71.3722 31.4116 72.2275C32.7656 72.3961 34.1329 72.4876 35.5071 72.5L32.5143 57.5739L31.4116 52.856L25.4952 49.9717L23.5451 50.0913C21.8785 50.192 20.2708 50.7438 18.8944 51.6875C17.518 52.6311 16.4248 53.9309 15.7321 55.4477Z"
        fill="#333333" />
    <path
        d="M53.0549 50.0158L50.0714 49.8333L43.8557 52.856L42.4884 57.5739L41.4929 72.0508C49.6632 70.742 57.1618 66.633 62.6667 60.3795L60.8679 55.3722C60.1755 53.8552 59.0824 52.5551 57.706 51.6114C56.3295 50.6677 54.7216 50.1161 53.0549 50.0158Z"
        fill="#333333" />
    <path
        d="M47.9944 25.264C47.9393 24.1792 47.6539 23.1184 47.157 22.1515C46.6601 21.1846 45.9629 20.3334 45.1115 19.6543C44.4857 19.1615 43.7617 18.7455 43.3473 18.0667C43.111 17.5861 42.9107 17.0888 42.7481 16.5789C41.9237 14.6255 39.5742 13.5873 37.4668 13.8831C35.3593 14.1789 33.5354 15.5901 32.3069 17.3203C31.7016 17.0316 31.0259 16.9216 30.3597 17.0033C29.6936 17.0851 29.0649 17.3551 28.5482 17.7815C28.0314 18.2079 27.6482 18.7728 27.4439 19.4092C27.2397 20.0457 27.2229 20.7271 27.3956 21.3728C26.3042 20.4976 24.5389 21.1977 23.8576 22.4169C23.1763 23.6361 23.2845 25.128 23.487 26.5085C23.8539 29.0035 24.4652 31.4568 25.312 33.8333C26.3746 32.9018 26.3093 31.2053 26.1795 29.7712C26.0445 28.2813 26.1254 26.4623 27.4341 25.7272C28.6985 25.0169 30.2331 25.7967 31.6272 26.2C32.7295 26.5108 33.8863 26.5799 35.018 26.4027C36.1497 26.2255 37.2293 25.8061 38.1825 25.1735C38.9088 24.6843 39.5553 24.0717 40.3382 23.6785C41.121 23.2854 42.1173 23.1488 42.8462 23.6341C43.5118 24.0772 43.7825 24.9038 44.0089 25.6684C44.5457 27.4805 45.0825 29.2926 45.6193 31.1047C46.4073 30.3535 47.0264 29.4446 47.4358 28.4378C47.8452 27.431 48.0356 26.3493 47.9944 25.264Z"
        fill="#333333" />
</svg>