<svg xmlns="http://www.w3.org/2000/svg" width="72" height="73" viewBox="0 0 72 73" fill="none">
    <path
        d="M36 72.1636C55.8822 72.1636 72 56.0458 72 36.1636C72 16.2813 55.8822 0.163551 36 0.163551C16.1178 0.163551 0 16.2813 0 36.1636C0 56.0458 16.1178 72.1636 36 72.1636Z"
        fill="#E6E6E6" />
    <path
        d="M21.2249 21.9967C20.7328 24.7165 19.9258 27.3658 18.8212 29.8882C12.496 43.6522 30.509 39.1658 36.9462 39.1658C43.9844 39.1658 50.7185 42.9728 49.6899 26.0572C49.2506 18.8316 43.9844 12.9486 36.9462 12.9486C30.9345 12.9486 22.482 15.6972 21.2249 21.9967Z"
        fill="#2F2E41" />
    <path
        d="M36 39.1916C41.7603 39.1916 46.4299 34.3713 46.4299 28.4252C46.4299 22.4792 41.7603 17.6589 36 17.6589C30.2397 17.6589 25.5701 22.4792 25.5701 28.4252C25.5701 34.3713 30.2397 39.1916 36 39.1916Z"
        fill="#FFB6B6" />
    <path
        d="M28.6818 18.0354C30.5351 16.9364 32.6579 16.3419 34.8283 16.3141C36.9987 16.2863 39.1369 16.8261 41.0194 17.8772C42.9018 18.9283 44.4594 20.452 45.5292 22.2891C46.599 24.1261 47.1418 26.209 47.1008 28.32C41.7116 29.6361 36.0498 30.6433 30.3027 28.6348L28.9454 25.4037L28.1452 28.6371C26.395 29.333 24.6402 29.9218 22.8854 28.6304C22.8138 26.5254 23.3114 24.439 24.3286 22.5798C25.3458 20.7205 26.8469 19.1535 28.6818 18.0354Z"
        fill="#2F2E41" />
    <path
        d="M63.9253 60.5386C57.6759 67.6742 48.8809 72.0575 39.4388 72.7423C29.9967 73.427 20.6649 70.3583 13.458 64.1985L16.552 55.5352C17.2512 53.9965 18.3546 52.6777 19.7438 51.7204C21.1331 50.7631 22.7558 50.2033 24.438 50.1011L26.4063 49.9798L31.0998 45.9178C31.0998 45.9178 43.746 45.4646 43.5584 45.2477L51.2186 49.8713L51.2123 49.8394L54.2236 50.0245C55.9059 50.1263 57.5288 50.6859 58.9181 51.6433C60.3075 52.6007 61.4108 53.9196 62.1096 55.4586L63.9253 60.5386Z"
        fill="#2AB3DE" />
</svg>