<svg width="72" height="73" viewBox="0 0 72 73" fill="none" xmlns="http://www.w3.org/2000/svg">
    <path
        d="M36 72.5C55.8822 72.5 72 56.3823 72 36.5C72 16.6178 55.8822 0.5 36 0.5C16.1178 0.5 0 16.6178 0 36.5C0 56.3823 16.1178 72.5 36 72.5Z"
        fill="#E6E6E6" />
    <path
        d="M41.6667 57.8333C53.6328 57.8333 63.3333 48.1328 63.3333 36.1667C63.3333 24.2005 53.6328 14.5 41.6667 14.5C29.7005 14.5 20 24.2005 20 36.1667C20 48.1328 29.7005 57.8333 41.6667 57.8333Z"
        fill="#FBD444" />
    <path
        d="M40.1084 44.5C40.063 44.5 40.0171 44.4989 39.9712 44.4967C39.5685 44.4772 39.1747 44.3711 38.817 44.1856C38.4592 44.0001 38.1458 43.7396 37.8984 43.422L34.5887 39.1776C34.1336 38.5928 33.9296 37.8517 34.0216 37.1171C34.1136 36.3825 34.494 35.7142 35.0793 35.2591L35.1978 35.1669C35.7843 34.713 36.5272 34.5095 37.2638 34.6011C38.0004 34.6928 38.6705 35.0721 39.1271 35.6558C39.2757 35.8465 39.4638 36.0029 39.6786 36.1143C39.8935 36.2257 40.1299 36.2894 40.3717 36.3011C40.6138 36.3152 40.856 36.2758 41.081 36.1858C41.3061 36.0957 41.5085 35.9572 41.6736 35.7801L48.3936 28.7039C48.9047 28.1671 49.6082 27.8544 50.35 27.8344C51.0919 27.8143 51.8114 28.0886 52.3508 28.597L52.46 28.7C52.9984 29.2097 53.3121 29.9117 53.3323 30.6518C53.3525 31.392 53.0775 32.1099 52.5677 32.648L42.1396 43.628C41.8783 43.9036 41.5634 44.123 41.2141 44.273C40.8649 44.4229 40.4886 44.5002 40.1084 44.5Z"
        fill="white" />
    <mask id="mask0_309_3996" maskUnits="userSpaceOnUse" x="0" y="0" width="72" height="73">
        <path
            d="M36 72.5C55.8823 72.5 72 56.3823 72 36.5C72 16.6178 55.8823 0.5 36 0.5C16.1178 0.5 0 16.6178 0 36.5C0 56.3823 16.1178 72.5 36 72.5Z"
            fill="#E6E6E6" />
    </mask>
    <g mask="url(#mask0_309_3996)">
        <path
            d="M26.6603 44.4063C26.6768 46.2634 25.2344 47.7963 23.4387 47.8301C23.2472 47.8337 23.056 47.8198 22.8672 47.7886L8.60223 70.6883L5.79511 65.2247L20.2106 43.6933C20.6285 41.8728 22.3911 40.7339 24.1477 41.1496C25.6174 41.4975 26.6562 42.8439 26.6603 44.4063Z"
            fill="#9E616A" />
        <path
            d="M-15.3239 72.4321C-15.3239 72.4321 -16.1867 76.6059 -11.4747 78.0679C-6.76272 79.53 7.18709 73.1719 9.46674 72.2138C11.7464 71.2557 17.7423 56.2107 17.7423 56.2107L15.0682 50.0227C10.1349 54.7608 6.16534 59.2062 5.50641 62.6464L-15.3239 72.4321Z"
            fill="#333333" />
    </g>
</svg>