<svg width="18" height="18" viewBox="0 0 18 18" fill="none" xmlns="http://www.w3.org/2000/svg">
<g clip-path="url(#clip0_2337_1466)">
<path d="M18 9C18 4.02947 13.9705 0 9 0C4.02947 0 0 4.0294 0 9C0 13.4921 3.29119 17.2155 7.59375 17.8907V11.6016H5.30859V9H7.59375V7.01719C7.59375 4.76156 8.93742 3.51562 10.9931 3.51562C11.9779 3.51562 13.0078 3.69141 13.0078 3.69141V5.90625H11.873C10.7549 5.90625 10.4062 6.60002 10.4062 7.3118V9H12.9023L12.5033 11.6016H10.4062V17.8907C14.7088 17.2155 18 13.4922 18 9Z" fill="#0D7291"/>
</g>
<defs>
<clipPath id="clip0_2337_1466">
<rect width="18" height="18" fill="white"/>
</clipPath>
</defs>
</svg>
