<svg width="25" height="19" viewBox="0 0 25 19" fill="none" xmlns="http://www.w3.org/2000/svg">
<path fill-rule="evenodd" clip-rule="evenodd" d="M7.88462 9.50008C7.88462 6.95107 9.95099 4.88469 12.5 4.88469C15.049 4.88469 17.1154 6.95107 17.1154 9.50008C17.1154 12.0491 15.049 14.1155 12.5 14.1155C9.95099 14.1155 7.88462 12.0491 7.88462 9.50008ZM12.5 6.73084C10.9706 6.73084 9.73077 7.97067 9.73077 9.50008C9.73077 11.0295 10.9706 12.2693 12.5 12.2693C14.0294 12.2693 15.2692 11.0295 15.2692 9.50008C15.2692 7.97067 14.0294 6.73084 12.5 6.73084Z" fill="#807D7D"/>
<path fill-rule="evenodd" clip-rule="evenodd" d="M3.05191 7.83405C2.53607 8.57735 2.34615 9.15878 2.34615 9.50008C2.34615 9.84137 2.53607 10.4228 3.05191 11.1661C3.55055 11.8846 4.29172 12.6635 5.22944 13.3832C7.10896 14.8257 9.68579 15.9616 12.5 15.9616C15.3142 15.9616 17.891 14.8257 19.7706 13.3832C20.7083 12.6635 21.4495 11.8846 21.9481 11.1661C22.4639 10.4228 22.6538 9.84137 22.6538 9.50008C22.6538 9.15878 22.4639 8.57735 21.9481 7.83405C21.4495 7.11553 20.7083 6.33665 19.7706 5.61696C17.891 4.17444 15.3142 3.03854 12.5 3.03854C9.68579 3.03854 7.10896 4.17444 5.22944 5.61696C4.29172 6.33665 3.55055 7.11553 3.05191 7.83405ZM4.10542 4.15242C6.23496 2.51802 9.1966 1.19238 12.5 1.19238C15.8034 1.19238 18.765 2.51802 20.8946 4.15242C21.9614 4.97119 22.8424 5.88462 23.4648 6.78149C24.07 7.65357 24.5 8.6106 24.5 9.50008C24.5 10.3896 24.07 11.3466 23.4648 12.2187C22.8424 13.1155 21.9614 14.029 20.8946 14.8477C18.765 16.4821 15.8034 17.8078 12.5 17.8078C9.1966 17.8078 6.23496 16.4821 4.10542 14.8477C3.03861 14.029 2.15761 13.1155 1.5352 12.2187C0.929995 11.3466 0.5 10.3896 0.5 9.50008C0.5 8.6106 0.929995 7.65357 1.5352 6.78149C2.15761 5.88462 3.03861 4.97119 4.10542 4.15242Z" fill="#807D7D"/>
</svg>