<svg width="16" height="16" viewBox="0 0 16 16" fill="none" xmlns="http://www.w3.org/2000/svg">
<path id="Icon" d="M15.7714 8.43708C15.9125 8.34889 16 8.18158 16 8C16 7.81841 15.9125 7.6511 15.7714 7.56292L13.7427 6.29496C9.74574 3.79689 5.53237 1.76488 1.16819 0.2306L0.577011 0.022764C0.442061 -0.0246794 0.295097 0.00294204 0.181185 0.0971585C0.0672709 0.191375 0 0.340945 0 0.500004V6.25C0 6.51593 0.18503 6.73533 0.421085 6.74931L1.31854 6.80245C3.50664 6.93201 5.68139 7.26588 7.82034 7.80061L8.03217 7.85357C8.07929 7.86535 8.09971 7.88703 8.11107 7.90424C8.12539 7.92595 8.13658 7.95938 8.13658 8C8.13658 8.04062 8.12539 8.07405 8.11107 8.09576C8.09971 8.11297 8.07929 8.13465 8.03217 8.14643L7.82036 8.19938C5.68139 8.73412 3.50663 9.06799 1.31852 9.19755L0.421085 9.25069C0.185029 9.26466 0 9.48407 0 9.75V15.5C0 15.6591 0.0672703 15.8086 0.181184 15.9028C0.295096 15.9971 0.44206 16.0247 0.57701 15.9772L1.1682 15.7694C5.53237 14.2351 9.74574 12.2031 13.7426 9.70504L15.7714 8.43708Z" fill="white"/>
</svg>
