<svg width="20" height="25" viewBox="0 0 20 25" fill="none" xmlns="http://www.w3.org/2000/svg">
<path id="Icon" fill-rule="evenodd" clip-rule="evenodd" d="M15.0407 3.10536C11.7098 2.54694 8.29022 2.54694 4.9593 3.10536C4.33245 3.21045 3.83458 3.69205 3.70963 4.3124C2.57273 9.95656 2.51069 15.7645 3.52678 21.4317L3.73687 22.6034L8.45174 18.1243C9.31936 17.3 10.6806 17.3 11.5482 18.1243L16.2631 22.6034L16.4732 21.4317C17.4893 15.7645 17.4273 9.95656 16.2904 4.3124C16.1654 3.69205 15.6675 3.21045 15.0407 3.10536ZM4.64072 1.2051C8.18256 0.611321 11.8174 0.611321 15.3593 1.2051C16.7712 1.44181 17.8959 2.52571 18.1792 3.93193C19.364 9.81364 19.4286 15.8661 18.3697 21.7717L18.0852 23.3585C17.8464 24.6904 16.2228 25.2227 15.2418 24.2908L10.2212 19.5212C10.0972 19.4034 9.90276 19.4034 9.77881 19.5212L4.75822 24.2908C3.77723 25.2227 2.15354 24.6904 1.91474 23.3585L1.63024 21.7717C0.571388 15.8661 0.636031 9.81364 1.82078 3.93193C2.10404 2.52571 3.22876 1.44181 4.64072 1.2051Z" fill="#333333"/>
</svg>
