<svg width="14" height="20" viewBox="0 0 14 20" fill="none" xmlns="http://www.w3.org/2000/svg">
<path id="Icon" fill-rule="evenodd" clip-rule="evenodd" d="M6.99976 0.25C3.27183 0.25 0.249756 3.27208 0.249756 7V15C0.249756 17.6234 2.3764 19.75 4.99976 19.75C7.62311 19.75 9.74976 17.6234 9.74976 15V6.85714C9.74976 5.33836 8.51854 4.10714 6.99976 4.10714C5.48097 4.10714 4.24976 5.33836 4.24976 6.85714V14.7143C4.24976 15.1285 4.58554 15.4643 4.99976 15.4643C5.41397 15.4643 5.74976 15.1285 5.74976 14.7143V6.85714C5.74976 6.16679 6.3094 5.60714 6.99976 5.60714C7.69011 5.60714 8.24976 6.16679 8.24976 6.85714V15C8.24976 16.7949 6.79468 18.25 4.99976 18.25C3.20483 18.25 1.74976 16.7949 1.74976 15V7C1.74976 4.1005 4.10026 1.75 6.99976 1.75C9.89925 1.75 12.2498 4.10051 12.2498 7V14.7143C12.2498 15.1285 12.5855 15.4643 12.9998 15.4643C13.414 15.4643 13.7498 15.1285 13.7498 14.7143V7C13.7498 3.27208 10.7277 0.25 6.99976 0.25Z" fill="#1992B8"/>
</svg>
