<svg width="29" height="25" viewBox="0 0 29 25" fill="none" xmlns="http://www.w3.org/2000/svg">
<path id="Icone_Aprender Off" fill-rule="evenodd" clip-rule="evenodd" d="M13.9636 24.34C14.1362 24.4525 14.3207 24.5023 14.5 24.4999C14.6793 24.5023 14.8638 24.4525 15.0365 24.34L16.5678 23.3416C19.5709 21.3835 23.2438 21.0637 26.4956 22.4771C27.6951 22.9985 29 22.0385 29 20.6346V3.54544C29 2.69831 28.5254 1.93652 27.8016 1.6219C23.6133 -0.198629 18.8827 0.213283 15.0146 2.7353L14.5 3.07084L13.9854 2.7353C10.1173 0.213283 5.38668 -0.198629 1.19842 1.6219C0.474615 1.93652 0 2.69831 0 3.54544V20.6346C0 22.0385 1.30485 22.9985 2.50441 22.4771C5.75619 21.0637 9.42907 21.3835 12.4322 23.3416L13.9636 24.34ZM2.02326 3.63167V20.322C5.79432 18.7858 10.0108 19.1987 13.4732 21.4563L13.4884 21.4661V4.97528L12.9444 4.62062C9.64114 2.46684 5.60622 2.10284 2.02326 3.63167ZM15.5268 21.4563L15.5116 21.4661V4.97528L16.0556 4.62062C19.3589 2.46684 23.3938 2.10284 26.9767 3.63167V20.322C23.2057 18.7858 18.9892 19.1987 15.5268 21.4563Z" fill="#807D7D"/>
</svg>
