<svg width="20" height="25" viewBox="0 0 20 25" fill="none" xmlns="http://www.w3.org/2000/svg">
<path id="Icone_Atividades Off" fill-rule="evenodd" clip-rule="evenodd" d="M11.2528 1.71519C11.2528 1.04406 10.6919 0.5 10 0.5C9.30812 0.5 8.74724 1.04406 8.74724 1.71519V2.62658H8.04892C5.26141 2.62658 2.95431 4.72888 2.7803 7.42749L2.50344 11.7213C2.39788 13.3584 1.83126 14.936 0.865301 16.2824C-0.00748169 17.4988 0.769513 19.1789 2.28653 19.3555L6.55488 19.8524V21.1582C6.55488 23.0038 8.09732 24.5 10 24.5C11.9027 24.5 13.4451 23.0038 13.4451 21.1582V19.8524L17.7135 19.3555C19.2305 19.1789 20.0075 17.4988 19.1347 16.2824C18.1687 14.936 17.6021 13.3584 17.4966 11.7213L17.2197 7.42749C17.0457 4.72888 14.7386 2.62658 11.9511 2.62658H11.2528V1.71519ZM8.04892 4.44937C6.25369 4.44937 4.76786 5.8033 4.6558 7.54127L4.37893 11.8351C4.25191 13.8051 3.57008 15.7035 2.4077 17.3236C2.34462 17.4115 2.40077 17.533 2.51042 17.5457L7.19286 18.0908C9.0576 18.3078 10.9424 18.3078 12.8071 18.0908L17.4896 17.5457C17.5992 17.533 17.6554 17.4115 17.5923 17.3236C16.4299 15.7035 15.7481 13.8051 15.6211 11.8351L15.3442 7.54127C15.2321 5.8033 13.7463 4.44937 11.9511 4.44937H8.04892ZM10 22.6772C9.13515 22.6772 8.43404 21.9971 8.43404 21.1582V20.2468H11.566V21.1582C11.566 21.9971 10.8649 22.6772 10 22.6772Z" fill="#807D7D"/>
</svg>
