<svg width="21" height="24" viewBox="0 0 21 24" fill="none" xmlns="http://www.w3.org/2000/svg">
<path id="Icone_Home On" d="M12.8783 1.00763C11.5774 -0.335875 9.42273 -0.335877 8.12186 1.00762L1.76796 7.56976C1.40305 7.94663 1.15783 8.42307 1.06322 8.93906C0.291555 13.1472 0.234594 17.4552 0.894727 21.6823L1.12844 23.1788C1.20226 23.6515 1.60939 24 2.08781 24H6.52763C6.89329 24 7.18971 23.7036 7.18971 23.3379V14.0689H13.8105V23.3379C13.8105 23.7036 14.1069 24 14.4725 24H18.9123C19.3907 24 19.7978 23.6515 19.8717 23.1788L20.1054 21.6823C20.7655 17.4552 20.7085 13.1472 19.9369 8.93906C19.8423 8.42307 19.5971 7.94663 19.2321 7.56976L12.8783 1.00763Z" fill="#1992B8"/>
</svg>
