<svg width="22" height="26" viewBox="0 0 22 26" fill="none" xmlns="http://www.w3.org/2000/svg">
<path id="Icon" fill-rule="evenodd" clip-rule="evenodd" d="M9.22366 3.0068C8.97386 3.0068 8.74327 3.14082 8.61962 3.35787L3.59148 12.1838C2.92496 13.3538 2.64526 14.7044 2.79234 16.0429L3.32302 20.8722C3.41744 21.7314 4.09198 22.412 4.95034 22.5141L8.13172 22.8926C10.2319 23.1424 12.3613 22.9259 14.3682 22.2584C15.3593 21.9287 16.1532 21.1764 16.5357 20.2045L19.0965 13.6968C19.1591 13.5376 19.2023 13.3716 19.2253 13.2022C19.4196 11.7714 18.1671 10.5645 16.7445 10.8115L11.6114 11.7031C9.98993 11.9847 8.5895 10.5538 8.90596 8.93878L9.90589 3.83568C9.99004 3.40624 9.66126 3.0068 9.22366 3.0068ZM6.66105 2.24207C7.18563 1.32127 8.1639 0.752695 9.22364 0.752686C11.0801 0.752669 12.4749 2.44729 12.1179 4.26912L11.118 9.37223C11.1137 9.39409 11.116 9.40745 11.119 9.41704C11.1227 9.42884 11.1304 9.44269 11.1429 9.45552C11.1555 9.46835 11.1691 9.47626 11.1809 9.48022C11.1904 9.48344 11.2037 9.48602 11.2257 9.48221L16.3587 8.59068C19.2833 8.08272 21.8582 10.564 21.459 13.5054C21.4117 13.8537 21.3227 14.1951 21.194 14.5221L18.6332 21.0299C18.0062 22.6234 16.7046 23.8568 15.0796 24.3973C12.7581 25.1694 10.2949 25.4199 7.86546 25.1309L4.68408 24.7525C2.7843 24.5265 1.29137 23.0201 1.08239 21.1184L0.551711 16.2891C0.352725 14.4783 0.731144 12.6509 1.6329 11.068L6.66105 2.24207Z" fill="#807D7D"/>
</svg>
