<svg width="22" height="22" viewBox="0 0 22 22" fill="none" xmlns="http://www.w3.org/2000/svg">
<path id="Icon" fill-rule="evenodd" clip-rule="evenodd" d="M13.6021 14.8213C10.5557 17.2612 6.09649 17.0692 3.27252 14.2452C0.242495 11.2152 0.242495 6.30254 3.27252 3.27252C6.30254 0.242495 11.2152 0.242495 14.2452 3.27252C17.0692 6.09649 17.2612 10.5557 14.8213 13.6021L20.7475 19.5283C21.0842 19.865 21.0842 20.4108 20.7475 20.7475C20.4108 21.0842 19.865 21.0842 19.5283 20.7475L13.6021 14.8213ZM4.4917 13.026C2.13502 10.6693 2.13502 6.84839 4.4917 4.4917C6.84838 2.13502 10.6693 2.13502 13.026 4.4917C15.381 6.84666 15.3827 10.6637 13.0312 13.0208C13.0295 13.0225 13.0277 13.0242 13.026 13.026C13.0243 13.0277 13.0225 13.0294 13.0208 13.0312C10.6637 15.3827 6.84666 15.381 4.4917 13.026Z" fill="#807D7D" stroke="#807D7D" stroke-width="0.5" stroke-linecap="round"/>
</svg>
