<svg width="24" height="18" viewBox="0 0 24 18" fill="none" xmlns="http://www.w3.org/2000/svg">
<g id="Icon">
<path d="M6.97866 6.46465C6.08105 6.46465 5.35338 7.14684 5.35338 7.98835C5.35338 8.82986 6.08105 9.51205 6.97866 9.51205C7.87628 9.51205 8.60394 8.82986 8.60394 7.98835C8.60394 7.14684 7.87628 6.46465 6.97866 6.46465Z" fill="#7F7D7D"/>
<path d="M12.1795 6.46465C11.2819 6.46465 10.5543 7.14684 10.5543 7.98835C10.5543 8.82986 11.2819 9.51205 12.1795 9.51205C13.0772 9.51205 13.8048 8.82986 13.8048 7.98835C13.8048 7.14684 13.0772 6.46465 12.1795 6.46465Z" fill="#7F7D7D"/>
<path d="M15.7552 7.98835C15.7552 7.14684 16.4828 6.46465 17.3804 6.46465C18.278 6.46465 19.0057 7.14684 19.0057 7.98835C19.0057 8.82986 18.278 9.51205 17.3804 9.51205C16.4828 9.51205 15.7552 8.82986 15.7552 7.98835Z" fill="#7F7D7D"/>
<path fill-rule="evenodd" clip-rule="evenodd" d="M17.5114 0.482978C14.0084 0.202911 10.487 0.186657 6.98119 0.434374L6.72994 0.452127C3.38668 0.688358 0.802612 3.30038 0.802612 6.44358V16.8258C0.802612 17.1474 0.982909 17.4454 1.27739 17.6105C1.57186 17.7755 1.93719 17.7833 2.23941 17.6311L7.3243 15.0692C7.56082 14.95 7.82516 14.8876 8.09368 14.8876H19.765C21.237 14.8876 22.4984 13.901 22.7623 12.5434C23.297 9.79195 23.3393 6.9762 22.8873 4.21172L22.7541 3.39706C22.5116 1.91389 21.2173 0.779267 19.6226 0.651769L17.5114 0.482978ZM7.12777 2.25764C10.5296 2.01727 13.9465 2.03304 17.3457 2.3048L19.4569 2.47359C20.1543 2.52935 20.7202 3.02551 20.8263 3.67409L20.9595 4.48875C21.3786 7.05256 21.3395 9.66392 20.8435 12.2157C20.7486 12.7042 20.2947 13.0592 19.765 13.0592H8.09368C7.50294 13.0592 6.9214 13.1964 6.40104 13.4586L2.75294 15.2966V6.44358C2.75294 4.25689 4.55065 2.43973 6.87652 2.27539L7.12777 2.25764Z" fill="#7F7D7D"/>
</g>
</svg>
