<svg width="22" height="25" viewBox="0 0 22 25" fill="none" xmlns="http://www.w3.org/2000/svg">
<g id="Icon">
<path fill-rule="evenodd" clip-rule="evenodd" d="M4.99259 6.24764C4.99259 2.92984 7.6822 0.240234 11 0.240234C14.3178 0.240234 17.0074 2.92984 17.0074 6.24764C17.0074 9.56543 14.3178 12.255 11 12.255C7.6822 12.255 4.99259 9.56543 4.99259 6.24764ZM11 2.36049C8.85318 2.36049 7.11285 4.10083 7.11285 6.24764C7.11285 8.39444 8.85318 10.1348 11 10.1348C13.1468 10.1348 14.8871 8.39444 14.8871 6.24764C14.8871 4.10083 13.1468 2.36049 11 2.36049Z" fill="#333333"/>
<path fill-rule="evenodd" clip-rule="evenodd" d="M5.34597 16.4956C3.58949 16.4956 2.16558 17.9195 2.16558 19.6759V21.3556C2.16558 21.3812 2.18411 21.403 2.20935 21.4071C8.03124 22.3576 13.9687 22.3576 19.7906 21.4071C19.8159 21.403 19.8344 21.3812 19.8344 21.3556V19.6759C19.8344 17.9195 18.4105 16.4956 16.654 16.4956H16.1722C16.1349 16.4956 16.0979 16.5014 16.0625 16.513L14.8391 16.9125C12.3445 17.7271 9.65548 17.7271 7.16089 16.9125L5.93748 16.513C5.90206 16.5014 5.86504 16.4956 5.82779 16.4956H5.34597ZM0.0453186 19.6759C0.0453186 16.7485 2.4185 14.3753 5.34597 14.3753H5.82779C6.08857 14.3753 6.34771 14.4165 6.59561 14.4975L7.81902 14.897C9.88597 15.5719 12.114 15.5719 14.181 14.897L15.4044 14.4975C15.6523 14.4165 15.9114 14.3753 16.1722 14.3753H16.654C19.5815 14.3753 21.9547 16.7485 21.9547 19.6759V21.3556C21.9547 22.4203 21.1831 23.3281 20.1323 23.4996C14.0841 24.4871 7.91586 24.4871 1.86771 23.4996C0.816928 23.3281 0.0453186 22.4203 0.0453186 21.3556V19.6759Z" fill="#333333"/>
</g>
</svg>
