<svg width="23" height="25" viewBox="0 0 23 25" fill="none" xmlns="http://www.w3.org/2000/svg">
<g id="Icon">
<path fill-rule="evenodd" clip-rule="evenodd" d="M16.502 0.801262C16.3091 0.608367 16.0475 0.5 15.7747 0.5C15.5019 0.5 15.2403 0.608367 15.0474 0.801262L2.4407 13.408C2.31148 13.5372 2.21901 13.6985 2.17283 13.8753L0.8014 19.1257C0.709116 19.479 0.811067 19.8548 1.06927 20.113C1.32748 20.3712 1.70322 20.4732 2.05653 20.3809L7.30694 19.0094C7.48376 18.9633 7.64508 18.8708 7.7743 18.7416L20.381 6.13487C20.7827 5.73318 20.7827 5.08193 20.381 4.68025L16.502 0.801262ZM4.09266 14.6652L15.7747 2.98319L18.1991 5.40756L6.51703 17.0896L3.23552 17.9467L4.09266 14.6652Z" fill="#807D7D"/>
<path d="M1.22852 22.4429C0.660458 22.4429 0.199951 22.9034 0.199951 23.4714C0.199951 24.0395 0.660458 24.5 1.22852 24.5H21.7999C22.368 24.5 22.8285 24.0395 22.8285 23.4714C22.8285 22.9034 22.368 22.4429 21.7999 22.4429H1.22852Z" fill="#807D7D"/>
</g>
</svg>
