<svg width="20" height="18" viewBox="0 0 20 18" fill="none" xmlns="http://www.w3.org/2000/svg">
<g id="Icon">
<path d="M15.7673 0.573728C15.3894 0.951655 15.3894 1.5644 15.7673 1.94232L16.6959 2.87093H11.7765C10.9109 2.87093 10.1216 3.36568 9.74425 4.14464L9.4728 4.70505C9.40397 4.84715 9.40397 5.01294 9.4728 5.15504L10.2069 6.67051C10.3009 6.8646 10.5773 6.8646 10.6714 6.67051L11.4861 4.98837C11.54 4.87709 11.6528 4.80641 11.7765 4.80641H16.6959L15.7673 5.73502C15.3894 6.11295 15.3894 6.72569 15.7673 7.10361C16.1452 7.48154 16.758 7.48154 17.1359 7.10361L19.7166 4.52297C20.0945 4.14504 20.0945 3.5323 19.7166 3.15437L17.1359 0.573728C16.758 0.195802 16.1452 0.195802 15.7673 0.573728Z" fill="#807D7D"/>
<path d="M7.46268 13.2949C7.53151 13.1528 7.53151 12.987 7.46268 12.8449L6.72863 11.3294C6.63462 11.1353 6.35813 11.1353 6.26412 11.3294L5.44934 13.0116C5.39543 13.1228 5.28267 13.1935 5.15902 13.1935H0.967742C0.433273 13.1935 0 13.6268 0 14.1613C0 14.6957 0.433273 15.129 0.967742 15.129H5.15902C6.02455 15.129 6.81393 14.6342 7.19124 13.8553L7.46268 13.2949Z" fill="#807D7D"/>
<path d="M15.7673 17.4262C15.3894 17.0483 15.3894 16.4355 15.7673 16.0576L16.6959 15.129H11.7765C10.9109 15.129 10.1216 14.6342 9.74425 13.8553L5.44934 4.98837C5.39543 4.87709 5.28267 4.80641 5.15902 4.80641H0.967742C0.433273 4.80641 0 4.37314 0 3.83867C0 3.3042 0.433273 2.87093 0.967742 2.87093H5.15902C6.02455 2.87093 6.81393 3.36568 7.19124 4.14464L11.4861 13.0116C11.54 13.1228 11.6528 13.1935 11.7765 13.1935H16.6959L15.7673 12.2649C15.3894 11.887 15.3894 11.2742 15.7673 10.8963C16.1452 10.5184 16.758 10.5184 17.1359 10.8963L19.7166 13.477C20.0945 13.8549 20.0945 14.4676 19.7166 14.8455L17.1359 17.4262C16.758 17.8041 16.1452 17.8041 15.7673 17.4262Z" fill="#807D7D"/>
</g>
</svg>
