<svg width="20" height="18" viewBox="0 0 20 18" fill="none" xmlns="http://www.w3.org/2000/svg">
<g id="Icon">
<path fill-rule="evenodd" clip-rule="evenodd" d="M6.24973 9.59241C6.24973 7.52134 7.92866 5.84241 9.99973 5.84241C12.0708 5.84241 13.7497 7.52134 13.7497 9.59241C13.7497 11.6635 12.0708 13.3424 9.99973 13.3424C7.92866 13.3424 6.24973 11.6635 6.24973 9.59241ZM9.99973 7.34241C8.75709 7.34241 7.74973 8.34977 7.74973 9.59241C7.74973 10.835 8.75709 11.8424 9.99973 11.8424C11.2424 11.8424 12.2497 10.835 12.2497 9.59241C12.2497 8.34977 11.2424 7.34241 9.99973 7.34241Z" fill="#1992B8"/>
<path fill-rule="evenodd" clip-rule="evenodd" d="M8.61586 2.34241C7.57069 2.34241 6.72341 3.18969 6.72341 4.23486C6.72341 4.90082 6.21219 5.45524 5.54841 5.50915L3.31881 5.69022C2.88104 5.72578 2.52102 6.0495 2.43931 6.48104C1.99056 8.85105 1.9571 11.281 2.34042 13.6625L2.43767 14.2667C2.52951 14.8373 2.99915 15.2714 3.5752 15.3182L5.51753 15.4759C8.50075 15.7182 11.4987 15.7182 14.4819 15.4759L16.4243 15.3182C17.0003 15.2714 17.4699 14.8373 17.5618 14.2667L17.659 13.6625C18.0424 11.281 18.0089 8.85105 17.5602 6.48104C17.4784 6.0495 17.1184 5.72578 16.6806 5.69022L14.451 5.50915C13.7873 5.45524 13.276 4.90082 13.276 4.23486C13.276 3.18969 12.4288 2.34241 11.3836 2.34241H8.61586ZM5.22949 4.03011C5.33535 2.25185 6.81101 0.842407 8.61586 0.842407H11.3836C13.1884 0.842407 14.6641 2.25184 14.77 4.03011L16.8021 4.19514C17.913 4.28537 18.8266 5.10687 19.034 6.20199C19.515 8.74275 19.5509 11.3478 19.14 13.9008L19.0427 14.505C18.8411 15.7576 17.8102 16.7106 16.5457 16.8133L14.6033 16.971C11.5393 17.2198 8.46015 17.2198 5.39611 16.971L3.45378 16.8133C2.18926 16.7106 1.15834 15.7576 0.95673 14.505L0.859479 13.9008C0.448546 11.3478 0.484417 8.74275 0.965492 6.20199C1.17284 5.10687 2.08648 4.28537 3.19739 4.19514L5.22949 4.03011Z" fill="#1992B8"/>
</g>
</svg>
