<svg width="24" height="25" viewBox="0 0 24 25" fill="none" xmlns="http://www.w3.org/2000/svg">
<g id="Component 9">
<path id="Icon" d="M20.2 10.4402H4M15.7 3.24023V6.84023M8.5 3.24023V6.84023M10.75 14.0402L12.1 13.1402V17.6402M10.975 17.6402H13.225M8.32 21.2402H15.88C17.3921 21.2402 18.1482 21.2402 18.7258 20.946C19.2338 20.6871 19.6469 20.274 19.9057 19.766C20.2 19.1884 20.2 18.4324 20.2 16.9202V9.36023C20.2 7.84809 20.2 7.09202 19.9057 6.51446C19.6469 6.00642 19.2338 5.59337 18.7258 5.33452C18.1482 5.04023 17.3921 5.04023 15.88 5.04023H8.32C6.80786 5.04023 6.05179 5.04023 5.47423 5.33452C4.96619 5.59337 4.55314 6.00642 4.29428 6.51446C4 7.09202 4 7.84809 4 9.36023V16.9202C4 18.4324 4 19.1884 4.29428 19.766C4.55314 20.274 4.96619 20.6871 5.47423 20.946C6.05179 21.2402 6.80786 21.2402 8.32 21.2402Z" stroke="#333333" stroke-width="2" stroke-linecap="round" stroke-linejoin="round"/>
</g>
</svg>
