<svg width="20" height="25" viewBox="0 0 20 25" fill="none" xmlns="http://www.w3.org/2000/svg">
<g id="Icone_Participar Off">
<mask id="path-1-outside-1_2642_3837" maskUnits="userSpaceOnUse" x="-0.340851" y="-0.5" width="20" height="26" fill="black">
<rect fill="white" x="-0.340851" y="-0.5" width="20" height="26"/>
<path d="M18.1495 3.9424H18.1482C17.8944 3.84262 17.6247 3.79027 17.3608 3.79027C17.1047 3.79027 16.8435 3.84006 16.5974 3.93245L16.5724 3.9424C16.3827 4.0172 16.2045 4.11929 16.0463 4.24894V3.64582C16.0463 2.71344 15.5228 2.11028 14.8547 1.84613C14.6037 1.74377 14.3325 1.69399 14.0663 1.69399C13.8012 1.69399 13.5314 1.74377 13.2776 1.84613C13.0819 1.92345 12.8973 2.03041 12.734 2.16773C12.6399 1.39741 12.1578 0.888961 11.5602 0.649546C11.3077 0.550009 11.0364 0.5 10.7702 0.5C10.5054 0.5 10.2354 0.550009 9.98181 0.649546C9.38035 0.891517 8.89821 1.40253 8.80667 2.17997C8.64466 2.04291 8.46004 1.9357 8.26408 1.85863H8.26151C8.00925 1.75881 7.73925 1.7065 7.47441 1.7065C7.20953 1.7065 6.93825 1.75627 6.686 1.85863C6.01794 2.1228 5.49439 2.72591 5.49439 3.65578H5.49672L5.49798 13.105L4.72089 11.7665L4.70699 11.7415C4.19479 10.8617 3.37372 10.5776 2.60021 10.6871C2.31016 10.7295 2.02396 10.8293 1.77016 10.9763C1.51535 11.121 1.28673 11.3153 1.10596 11.5422C0.623818 12.153 0.46181 13.0029 0.97429 13.8827L2.51844 16.5372L5.1002 20.9416C6.20874 22.6964 7.81203 23.7707 9.54365 24.2345C10.9348 24.6059 12.4126 24.5808 13.7837 24.2021C15.1574 23.8208 16.4318 23.0777 17.411 22.0185C18.5877 20.7423 19.3409 19.0125 19.3409 16.8964V5.73955C19.3409 4.80714 18.8173 4.20659 18.1495 3.9424ZM18.2472 16.8964C18.2472 18.7208 17.6082 20.204 16.6087 21.2883C15.7715 22.1954 14.6778 22.8312 13.4936 23.1576C12.3072 23.4866 11.0289 23.5065 9.82497 23.1849C8.3469 22.7911 6.9771 21.8714 6.02796 20.3735L3.46142 15.9938L1.91723 13.3393C1.66601 12.9082 1.73751 12.4993 1.96482 12.2127C2.06151 12.0906 2.18339 11.9883 2.31762 11.911C2.45211 11.8339 2.60279 11.7816 2.7522 11.7614H2.75348C3.11862 11.7091 3.51182 11.8513 3.76405 12.2849L3.78181 12.3125L5.00966 14.4261L5.00836 14.4287C5.10378 14.5956 5.24702 14.7176 5.41261 14.7875H5.41646L5.41518 14.7901C5.57976 14.8572 5.76927 14.8748 5.95132 14.8274C6.14085 14.7801 6.29924 14.673 6.41214 14.5282L6.416 14.5234H6.41729C6.52528 14.3812 6.58932 14.2043 6.58932 14.0124H6.58675L6.58547 3.65578H6.58803C6.58803 3.23948 6.8102 2.9753 7.09152 2.86299C7.20697 2.81578 7.33888 2.7933 7.47441 2.7933C7.61121 2.7933 7.74312 2.81578 7.85859 2.86043V2.86299C8.13989 2.9753 8.36207 3.23948 8.36207 3.65578V11.0437C8.36207 11.243 8.44357 11.4225 8.57549 11.5521L8.63336 11.6045C8.75627 11.7042 8.91441 11.7639 9.08773 11.7639H9.15817C9.35027 11.7639 9.53106 11.6866 9.66297 11.5572L9.67427 11.5473C9.80233 11.4176 9.88385 11.2405 9.88385 11.0437V2.45181C9.88385 2.03296 10.1047 1.7662 10.3873 1.65418C10.5041 1.60927 10.636 1.58425 10.7702 1.58425C10.906 1.58425 11.0377 1.60927 11.1544 1.65418C11.4357 1.7662 11.6579 2.03296 11.6579 2.45181V11.0437C11.6579 11.2382 11.7397 11.4202 11.8726 11.5521H11.8716C11.9996 11.6792 12.1827 11.7639 12.3825 11.7639H12.4527C12.6512 11.7639 12.8346 11.6843 12.9662 11.5521L13.0115 11.5049C13.1156 11.3801 13.1797 11.2183 13.1797 11.0437H13.1787L13.1774 3.64582H13.1797C13.1797 3.22696 13.4008 2.9628 13.6832 2.85048C13.8002 2.80326 13.9331 2.77826 14.0663 2.77826C14.2018 2.77826 14.335 2.80326 14.4505 2.85048C14.7318 2.9628 14.9527 3.22696 14.9527 3.64582V11.0437C14.9527 11.2356 15.0329 11.4151 15.1635 11.5473L15.1713 11.5547L15.2001 11.582L15.2039 11.5845C15.3307 11.6969 15.4976 11.7639 15.6796 11.7639H15.7488C15.9471 11.7639 16.1291 11.6843 16.2623 11.5521C16.3917 11.425 16.4745 11.2456 16.4745 11.0437V5.73955C16.4745 5.32326 16.6954 5.05907 16.9767 4.94677L16.9967 4.93937C17.1073 4.89955 17.2328 4.8771 17.3608 4.8771C17.4966 4.8771 17.6296 4.90184 17.745 4.94677C18.0263 5.05907 18.2472 5.32326 18.2472 5.73955V16.8964Z"/>
</mask>
<path d="M18.1495 3.9424H18.1482C17.8944 3.84262 17.6247 3.79027 17.3608 3.79027C17.1047 3.79027 16.8435 3.84006 16.5974 3.93245L16.5724 3.9424C16.3827 4.0172 16.2045 4.11929 16.0463 4.24894V3.64582C16.0463 2.71344 15.5228 2.11028 14.8547 1.84613C14.6037 1.74377 14.3325 1.69399 14.0663 1.69399C13.8012 1.69399 13.5314 1.74377 13.2776 1.84613C13.0819 1.92345 12.8973 2.03041 12.734 2.16773C12.6399 1.39741 12.1578 0.888961 11.5602 0.649546C11.3077 0.550009 11.0364 0.5 10.7702 0.5C10.5054 0.5 10.2354 0.550009 9.98181 0.649546C9.38035 0.891517 8.89821 1.40253 8.80667 2.17997C8.64466 2.04291 8.46004 1.9357 8.26408 1.85863H8.26151C8.00925 1.75881 7.73925 1.7065 7.47441 1.7065C7.20953 1.7065 6.93825 1.75627 6.686 1.85863C6.01794 2.1228 5.49439 2.72591 5.49439 3.65578H5.49672L5.49798 13.105L4.72089 11.7665L4.70699 11.7415C4.19479 10.8617 3.37372 10.5776 2.60021 10.6871C2.31016 10.7295 2.02396 10.8293 1.77016 10.9763C1.51535 11.121 1.28673 11.3153 1.10596 11.5422C0.623818 12.153 0.46181 13.0029 0.97429 13.8827L2.51844 16.5372L5.1002 20.9416C6.20874 22.6964 7.81203 23.7707 9.54365 24.2345C10.9348 24.6059 12.4126 24.5808 13.7837 24.2021C15.1574 23.8208 16.4318 23.0777 17.411 22.0185C18.5877 20.7423 19.3409 19.0125 19.3409 16.8964V5.73955C19.3409 4.80714 18.8173 4.20659 18.1495 3.9424ZM18.2472 16.8964C18.2472 18.7208 17.6082 20.204 16.6087 21.2883C15.7715 22.1954 14.6778 22.8312 13.4936 23.1576C12.3072 23.4866 11.0289 23.5065 9.82497 23.1849C8.3469 22.7911 6.9771 21.8714 6.02796 20.3735L3.46142 15.9938L1.91723 13.3393C1.66601 12.9082 1.73751 12.4993 1.96482 12.2127C2.06151 12.0906 2.18339 11.9883 2.31762 11.911C2.45211 11.8339 2.60279 11.7816 2.7522 11.7614H2.75348C3.11862 11.7091 3.51182 11.8513 3.76405 12.2849L3.78181 12.3125L5.00966 14.4261L5.00836 14.4287C5.10378 14.5956 5.24702 14.7176 5.41261 14.7875H5.41646L5.41518 14.7901C5.57976 14.8572 5.76927 14.8748 5.95132 14.8274C6.14085 14.7801 6.29924 14.673 6.41214 14.5282L6.416 14.5234H6.41729C6.52528 14.3812 6.58932 14.2043 6.58932 14.0124H6.58675L6.58547 3.65578H6.58803C6.58803 3.23948 6.8102 2.9753 7.09152 2.86299C7.20697 2.81578 7.33888 2.7933 7.47441 2.7933C7.61121 2.7933 7.74312 2.81578 7.85859 2.86043V2.86299C8.13989 2.9753 8.36207 3.23948 8.36207 3.65578V11.0437C8.36207 11.243 8.44357 11.4225 8.57549 11.5521L8.63336 11.6045C8.75627 11.7042 8.91441 11.7639 9.08773 11.7639H9.15817C9.35027 11.7639 9.53106 11.6866 9.66297 11.5572L9.67427 11.5473C9.80233 11.4176 9.88385 11.2405 9.88385 11.0437V2.45181C9.88385 2.03296 10.1047 1.7662 10.3873 1.65418C10.5041 1.60927 10.636 1.58425 10.7702 1.58425C10.906 1.58425 11.0377 1.60927 11.1544 1.65418C11.4357 1.7662 11.6579 2.03296 11.6579 2.45181V11.0437C11.6579 11.2382 11.7397 11.4202 11.8726 11.5521H11.8716C11.9996 11.6792 12.1827 11.7639 12.3825 11.7639H12.4527C12.6512 11.7639 12.8346 11.6843 12.9662 11.5521L13.0115 11.5049C13.1156 11.3801 13.1797 11.2183 13.1797 11.0437H13.1787L13.1774 3.64582H13.1797C13.1797 3.22696 13.4008 2.9628 13.6832 2.85048C13.8002 2.80326 13.9331 2.77826 14.0663 2.77826C14.2018 2.77826 14.335 2.80326 14.4505 2.85048C14.7318 2.9628 14.9527 3.22696 14.9527 3.64582V11.0437C14.9527 11.2356 15.0329 11.4151 15.1635 11.5473L15.1713 11.5547L15.2001 11.582L15.2039 11.5845C15.3307 11.6969 15.4976 11.7639 15.6796 11.7639H15.7488C15.9471 11.7639 16.1291 11.6843 16.2623 11.5521C16.3917 11.425 16.4745 11.2456 16.4745 11.0437V5.73955C16.4745 5.32326 16.6954 5.05907 16.9767 4.94677L16.9967 4.93937C17.1073 4.89955 17.2328 4.8771 17.3608 4.8771C17.4966 4.8771 17.6296 4.90184 17.745 4.94677C18.0263 5.05907 18.2472 5.32326 18.2472 5.73955V16.8964Z" fill="#333333"/>
<path d="M18.1495 3.9424H18.1482C17.8944 3.84262 17.6247 3.79027 17.3608 3.79027C17.1047 3.79027 16.8435 3.84006 16.5974 3.93245L16.5724 3.9424C16.3827 4.0172 16.2045 4.11929 16.0463 4.24894V3.64582C16.0463 2.71344 15.5228 2.11028 14.8547 1.84613C14.6037 1.74377 14.3325 1.69399 14.0663 1.69399C13.8012 1.69399 13.5314 1.74377 13.2776 1.84613C13.0819 1.92345 12.8973 2.03041 12.734 2.16773C12.6399 1.39741 12.1578 0.888961 11.5602 0.649546C11.3077 0.550009 11.0364 0.5 10.7702 0.5C10.5054 0.5 10.2354 0.550009 9.98181 0.649546C9.38035 0.891517 8.89821 1.40253 8.80667 2.17997C8.64466 2.04291 8.46004 1.9357 8.26408 1.85863H8.26151C8.00925 1.75881 7.73925 1.7065 7.47441 1.7065C7.20953 1.7065 6.93825 1.75627 6.686 1.85863C6.01794 2.1228 5.49439 2.72591 5.49439 3.65578H5.49672L5.49798 13.105L4.72089 11.7665L4.70699 11.7415C4.19479 10.8617 3.37372 10.5776 2.60021 10.6871C2.31016 10.7295 2.02396 10.8293 1.77016 10.9763C1.51535 11.121 1.28673 11.3153 1.10596 11.5422C0.623818 12.153 0.46181 13.0029 0.97429 13.8827L2.51844 16.5372L5.1002 20.9416C6.20874 22.6964 7.81203 23.7707 9.54365 24.2345C10.9348 24.6059 12.4126 24.5808 13.7837 24.2021C15.1574 23.8208 16.4318 23.0777 17.411 22.0185C18.5877 20.7423 19.3409 19.0125 19.3409 16.8964V5.73955C19.3409 4.80714 18.8173 4.20659 18.1495 3.9424ZM18.2472 16.8964C18.2472 18.7208 17.6082 20.204 16.6087 21.2883C15.7715 22.1954 14.6778 22.8312 13.4936 23.1576C12.3072 23.4866 11.0289 23.5065 9.82497 23.1849C8.3469 22.7911 6.9771 21.8714 6.02796 20.3735L3.46142 15.9938L1.91723 13.3393C1.66601 12.9082 1.73751 12.4993 1.96482 12.2127C2.06151 12.0906 2.18339 11.9883 2.31762 11.911C2.45211 11.8339 2.60279 11.7816 2.7522 11.7614H2.75348C3.11862 11.7091 3.51182 11.8513 3.76405 12.2849L3.78181 12.3125L5.00966 14.4261L5.00836 14.4287C5.10378 14.5956 5.24702 14.7176 5.41261 14.7875H5.41646L5.41518 14.7901C5.57976 14.8572 5.76927 14.8748 5.95132 14.8274C6.14085 14.7801 6.29924 14.673 6.41214 14.5282L6.416 14.5234H6.41729C6.52528 14.3812 6.58932 14.2043 6.58932 14.0124H6.58675L6.58547 3.65578H6.58803C6.58803 3.23948 6.8102 2.9753 7.09152 2.86299C7.20697 2.81578 7.33888 2.7933 7.47441 2.7933C7.61121 2.7933 7.74312 2.81578 7.85859 2.86043V2.86299C8.13989 2.9753 8.36207 3.23948 8.36207 3.65578V11.0437C8.36207 11.243 8.44357 11.4225 8.57549 11.5521L8.63336 11.6045C8.75627 11.7042 8.91441 11.7639 9.08773 11.7639H9.15817C9.35027 11.7639 9.53106 11.6866 9.66297 11.5572L9.67427 11.5473C9.80233 11.4176 9.88385 11.2405 9.88385 11.0437V2.45181C9.88385 2.03296 10.1047 1.7662 10.3873 1.65418C10.5041 1.60927 10.636 1.58425 10.7702 1.58425C10.906 1.58425 11.0377 1.60927 11.1544 1.65418C11.4357 1.7662 11.6579 2.03296 11.6579 2.45181V11.0437C11.6579 11.2382 11.7397 11.4202 11.8726 11.5521H11.8716C11.9996 11.6792 12.1827 11.7639 12.3825 11.7639H12.4527C12.6512 11.7639 12.8346 11.6843 12.9662 11.5521L13.0115 11.5049C13.1156 11.3801 13.1797 11.2183 13.1797 11.0437H13.1787L13.1774 3.64582H13.1797C13.1797 3.22696 13.4008 2.9628 13.6832 2.85048C13.8002 2.80326 13.9331 2.77826 14.0663 2.77826C14.2018 2.77826 14.335 2.80326 14.4505 2.85048C14.7318 2.9628 14.9527 3.22696 14.9527 3.64582V11.0437C14.9527 11.2356 15.0329 11.4151 15.1635 11.5473L15.1713 11.5547L15.2001 11.582L15.2039 11.5845C15.3307 11.6969 15.4976 11.7639 15.6796 11.7639H15.7488C15.9471 11.7639 16.1291 11.6843 16.2623 11.5521C16.3917 11.425 16.4745 11.2456 16.4745 11.0437V5.73955C16.4745 5.32326 16.6954 5.05907 16.9767 4.94677L16.9967 4.93937C17.1073 4.89955 17.2328 4.8771 17.3608 4.8771C17.4966 4.8771 17.6296 4.90184 17.745 4.94677C18.0263 5.05907 18.2472 5.32326 18.2472 5.73955V16.8964Z" stroke="#333333" stroke-width="0.6" mask="url(#path-1-outside-1_2642_3837)"/>
</g>
</svg>
