<svg width="25" height="25" viewBox="0 0 25 25" fill="none" xmlns="http://www.w3.org/2000/svg">
<path id="Icone_Conversas Off" fill-rule="evenodd" clip-rule="evenodd" d="M2.40679 16.6419C-0.666741 9.09775 4.88333 0.843628 13.0295 0.843628H13.469C19.5613 0.843628 24.5 5.78238 24.5 11.8746C24.5 18.6576 19.0013 24.1563 12.2183 24.1563H1.52554C1.09038 24.1563 0.702611 23.8817 0.558185 23.4712C0.413759 23.0607 0.544133 22.6037 0.883422 22.3313L3.57907 20.1664C3.69693 20.0718 3.73863 19.9109 3.68159 19.7709L2.40679 16.6419ZM13.0295 2.8946C6.3399 2.8946 1.78221 9.67285 4.30618 15.8681L5.58098 18.9971C5.98023 19.9771 5.68837 21.1029 4.86331 21.7655L4.4402 22.1053H12.2183C17.8686 22.1053 22.449 17.5249 22.449 11.8746C22.449 6.91509 18.4285 2.8946 13.469 2.8946H13.0295Z" fill="#807D7D"/>
</svg>
