<svg width="21" height="25" viewBox="0 0 21 25" fill="none" xmlns="http://www.w3.org/2000/svg">
<g id="Icone_Participar Off">
<mask id="path-1-outside-1_2613_2677" maskUnits="userSpaceOnUse" x="0.15918" y="-0.5" width="20" height="26" fill="black">
<rect fill="white" x="0.15918" y="-0.5" width="20" height="26"/>
<path d="M18.6495 3.9424H18.6482C18.3944 3.84262 18.1247 3.79027 17.8609 3.79027C17.6048 3.79027 17.3435 3.84006 17.0974 3.93245L17.0725 3.9424C16.8827 4.0172 16.7045 4.11929 16.5464 4.24894V3.64582C16.5464 2.71344 16.0228 2.11028 15.3547 1.84613C15.1038 1.74377 14.8325 1.69399 14.5663 1.69399C14.3012 1.69399 14.0315 1.74377 13.7777 1.84613C13.582 1.92345 13.3974 2.03041 13.2341 2.16773C13.1399 1.39741 12.6578 0.888961 12.0602 0.649546C11.8077 0.550009 11.5364 0.5 11.2703 0.5C11.0054 0.5 10.7354 0.550009 10.4818 0.649546C9.88038 0.891517 9.39824 1.40253 9.3067 2.17997C9.14469 2.04291 8.96007 1.9357 8.76411 1.85863H8.76154C8.50928 1.75881 8.23928 1.7065 7.97444 1.7065C7.70956 1.7065 7.43828 1.75627 7.18603 1.85863C6.51797 2.1228 5.99442 2.72591 5.99442 3.65578H5.99675L5.99801 13.105L5.22092 11.7665L5.20703 11.7415C4.69483 10.8617 3.87375 10.5776 3.10024 10.6871C2.81019 10.7295 2.52399 10.8293 2.27019 10.9763C2.01538 11.121 1.78676 11.3153 1.60599 11.5422C1.12385 12.153 0.96184 13.0029 1.47432 13.8827L3.01847 16.5372L5.60023 20.9416C6.70877 22.6964 8.31206 23.7707 10.0437 24.2345C11.4348 24.6059 12.9126 24.5808 14.2837 24.2021C15.6574 23.8208 16.9318 23.0777 17.911 22.0185C19.0877 20.7423 19.8409 19.0125 19.8409 16.8964V5.73955C19.8409 4.80714 19.3173 4.20659 18.6495 3.9424ZM18.7473 16.8964C18.7473 18.7208 18.1083 20.204 17.1087 21.2883C16.2715 22.1954 15.1778 22.8312 13.9937 23.1576C12.8072 23.4866 11.5289 23.5065 10.325 23.1849C8.84693 22.7911 7.47713 21.8714 6.52799 20.3735L3.96145 15.9938L2.41726 13.3393C2.16604 12.9082 2.23754 12.4993 2.46485 12.2127C2.56154 12.0906 2.68342 11.9883 2.81765 11.911C2.95214 11.8339 3.10282 11.7816 3.25223 11.7614H3.25351C3.61865 11.7091 4.01185 11.8513 4.26408 12.2849L4.28184 12.3125L5.50969 14.4261L5.5084 14.4287C5.60381 14.5956 5.74705 14.7176 5.91264 14.7875H5.91649L5.91521 14.7901C6.0798 14.8572 6.2693 14.8748 6.45135 14.8274C6.64088 14.7801 6.79927 14.673 6.91217 14.5282L6.91603 14.5234H6.91732C7.02531 14.3812 7.08935 14.2043 7.08935 14.0124H7.08678L7.0855 3.65578H7.08806C7.08806 3.23948 7.31023 2.9753 7.59155 2.86299C7.707 2.81578 7.83891 2.7933 7.97444 2.7933C8.11124 2.7933 8.24316 2.81578 8.35862 2.86043V2.86299C8.63992 2.9753 8.8621 3.23948 8.8621 3.65578V11.0437C8.8621 11.243 8.9436 11.4225 9.07552 11.5521L9.13339 11.6045C9.2563 11.7042 9.41444 11.7639 9.58776 11.7639H9.6582C9.8503 11.7639 10.0311 11.6866 10.163 11.5572L10.1743 11.5473C10.3024 11.4176 10.3839 11.2405 10.3839 11.0437V2.45181C10.3839 2.03296 10.6048 1.7662 10.8874 1.65418C11.0041 1.60927 11.136 1.58425 11.2703 1.58425C11.406 1.58425 11.5377 1.60927 11.6544 1.65418C11.9357 1.7662 12.1579 2.03296 12.1579 2.45181V11.0437C12.1579 11.2382 12.2397 11.4202 12.3726 11.5521H12.3716C12.4997 11.6792 12.6828 11.7639 12.8826 11.7639H12.9527C13.1513 11.7639 13.3346 11.6843 13.4663 11.5521L13.5115 11.5049C13.6157 11.3801 13.6797 11.2183 13.6797 11.0437H13.6787L13.6774 3.64582H13.6797C13.6797 3.22696 13.9008 2.9628 14.1832 2.85048C14.3002 2.80326 14.4331 2.77826 14.5663 2.77826C14.7018 2.77826 14.8351 2.80326 14.9505 2.85048C15.2318 2.9628 15.4527 3.22696 15.4527 3.64582V11.0437C15.4527 11.2356 15.5329 11.4151 15.6636 11.5473L15.6713 11.5547L15.7001 11.582L15.7039 11.5845C15.8307 11.6969 15.9976 11.7639 16.1797 11.7639H16.2488C16.4471 11.7639 16.6292 11.6843 16.7624 11.5521C16.8917 11.425 16.9745 11.2456 16.9745 11.0437V5.73955C16.9745 5.32326 17.1954 5.05907 17.4767 4.94677L17.4967 4.93937C17.6073 4.89955 17.7328 4.8771 17.8609 4.8771C17.9966 4.8771 18.1296 4.90184 18.2451 4.94677C18.5264 5.05907 18.7473 5.32326 18.7473 5.73955V16.8964Z"/>
</mask>
<path d="M18.6495 3.9424H18.6482C18.3944 3.84262 18.1247 3.79027 17.8609 3.79027C17.6048 3.79027 17.3435 3.84006 17.0974 3.93245L17.0725 3.9424C16.8827 4.0172 16.7045 4.11929 16.5464 4.24894V3.64582C16.5464 2.71344 16.0228 2.11028 15.3547 1.84613C15.1038 1.74377 14.8325 1.69399 14.5663 1.69399C14.3012 1.69399 14.0315 1.74377 13.7777 1.84613C13.582 1.92345 13.3974 2.03041 13.2341 2.16773C13.1399 1.39741 12.6578 0.888961 12.0602 0.649546C11.8077 0.550009 11.5364 0.5 11.2703 0.5C11.0054 0.5 10.7354 0.550009 10.4818 0.649546C9.88038 0.891517 9.39824 1.40253 9.3067 2.17997C9.14469 2.04291 8.96007 1.9357 8.76411 1.85863H8.76154C8.50928 1.75881 8.23928 1.7065 7.97444 1.7065C7.70956 1.7065 7.43828 1.75627 7.18603 1.85863C6.51797 2.1228 5.99442 2.72591 5.99442 3.65578H5.99675L5.99801 13.105L5.22092 11.7665L5.20703 11.7415C4.69483 10.8617 3.87375 10.5776 3.10024 10.6871C2.81019 10.7295 2.52399 10.8293 2.27019 10.9763C2.01538 11.121 1.78676 11.3153 1.60599 11.5422C1.12385 12.153 0.96184 13.0029 1.47432 13.8827L3.01847 16.5372L5.60023 20.9416C6.70877 22.6964 8.31206 23.7707 10.0437 24.2345C11.4348 24.6059 12.9126 24.5808 14.2837 24.2021C15.6574 23.8208 16.9318 23.0777 17.911 22.0185C19.0877 20.7423 19.8409 19.0125 19.8409 16.8964V5.73955C19.8409 4.80714 19.3173 4.20659 18.6495 3.9424ZM18.7473 16.8964C18.7473 18.7208 18.1083 20.204 17.1087 21.2883C16.2715 22.1954 15.1778 22.8312 13.9937 23.1576C12.8072 23.4866 11.5289 23.5065 10.325 23.1849C8.84693 22.7911 7.47713 21.8714 6.52799 20.3735L3.96145 15.9938L2.41726 13.3393C2.16604 12.9082 2.23754 12.4993 2.46485 12.2127C2.56154 12.0906 2.68342 11.9883 2.81765 11.911C2.95214 11.8339 3.10282 11.7816 3.25223 11.7614H3.25351C3.61865 11.7091 4.01185 11.8513 4.26408 12.2849L4.28184 12.3125L5.50969 14.4261L5.5084 14.4287C5.60381 14.5956 5.74705 14.7176 5.91264 14.7875H5.91649L5.91521 14.7901C6.0798 14.8572 6.2693 14.8748 6.45135 14.8274C6.64088 14.7801 6.79927 14.673 6.91217 14.5282L6.91603 14.5234H6.91732C7.02531 14.3812 7.08935 14.2043 7.08935 14.0124H7.08678L7.0855 3.65578H7.08806C7.08806 3.23948 7.31023 2.9753 7.59155 2.86299C7.707 2.81578 7.83891 2.7933 7.97444 2.7933C8.11124 2.7933 8.24316 2.81578 8.35862 2.86043V2.86299C8.63992 2.9753 8.8621 3.23948 8.8621 3.65578V11.0437C8.8621 11.243 8.9436 11.4225 9.07552 11.5521L9.13339 11.6045C9.2563 11.7042 9.41444 11.7639 9.58776 11.7639H9.6582C9.8503 11.7639 10.0311 11.6866 10.163 11.5572L10.1743 11.5473C10.3024 11.4176 10.3839 11.2405 10.3839 11.0437V2.45181C10.3839 2.03296 10.6048 1.7662 10.8874 1.65418C11.0041 1.60927 11.136 1.58425 11.2703 1.58425C11.406 1.58425 11.5377 1.60927 11.6544 1.65418C11.9357 1.7662 12.1579 2.03296 12.1579 2.45181V11.0437C12.1579 11.2382 12.2397 11.4202 12.3726 11.5521H12.3716C12.4997 11.6792 12.6828 11.7639 12.8826 11.7639H12.9527C13.1513 11.7639 13.3346 11.6843 13.4663 11.5521L13.5115 11.5049C13.6157 11.3801 13.6797 11.2183 13.6797 11.0437H13.6787L13.6774 3.64582H13.6797C13.6797 3.22696 13.9008 2.9628 14.1832 2.85048C14.3002 2.80326 14.4331 2.77826 14.5663 2.77826C14.7018 2.77826 14.8351 2.80326 14.9505 2.85048C15.2318 2.9628 15.4527 3.22696 15.4527 3.64582V11.0437C15.4527 11.2356 15.5329 11.4151 15.6636 11.5473L15.6713 11.5547L15.7001 11.582L15.7039 11.5845C15.8307 11.6969 15.9976 11.7639 16.1797 11.7639H16.2488C16.4471 11.7639 16.6292 11.6843 16.7624 11.5521C16.8917 11.425 16.9745 11.2456 16.9745 11.0437V5.73955C16.9745 5.32326 17.1954 5.05907 17.4767 4.94677L17.4967 4.93937C17.6073 4.89955 17.7328 4.8771 17.8609 4.8771C17.9966 4.8771 18.1296 4.90184 18.2451 4.94677C18.5264 5.05907 18.7473 5.32326 18.7473 5.73955V16.8964Z" fill="#807D7D"/>
<path d="M18.6495 3.9424H18.6482C18.3944 3.84262 18.1247 3.79027 17.8609 3.79027C17.6048 3.79027 17.3435 3.84006 17.0974 3.93245L17.0725 3.9424C16.8827 4.0172 16.7045 4.11929 16.5464 4.24894V3.64582C16.5464 2.71344 16.0228 2.11028 15.3547 1.84613C15.1038 1.74377 14.8325 1.69399 14.5663 1.69399C14.3012 1.69399 14.0315 1.74377 13.7777 1.84613C13.582 1.92345 13.3974 2.03041 13.2341 2.16773C13.1399 1.39741 12.6578 0.888961 12.0602 0.649546C11.8077 0.550009 11.5364 0.5 11.2703 0.5C11.0054 0.5 10.7354 0.550009 10.4818 0.649546C9.88038 0.891517 9.39824 1.40253 9.3067 2.17997C9.14469 2.04291 8.96007 1.9357 8.76411 1.85863H8.76154C8.50928 1.75881 8.23928 1.7065 7.97444 1.7065C7.70956 1.7065 7.43828 1.75627 7.18603 1.85863C6.51797 2.1228 5.99442 2.72591 5.99442 3.65578H5.99675L5.99801 13.105L5.22092 11.7665L5.20703 11.7415C4.69483 10.8617 3.87375 10.5776 3.10024 10.6871C2.81019 10.7295 2.52399 10.8293 2.27019 10.9763C2.01538 11.121 1.78676 11.3153 1.60599 11.5422C1.12385 12.153 0.96184 13.0029 1.47432 13.8827L3.01847 16.5372L5.60023 20.9416C6.70877 22.6964 8.31206 23.7707 10.0437 24.2345C11.4348 24.6059 12.9126 24.5808 14.2837 24.2021C15.6574 23.8208 16.9318 23.0777 17.911 22.0185C19.0877 20.7423 19.8409 19.0125 19.8409 16.8964V5.73955C19.8409 4.80714 19.3173 4.20659 18.6495 3.9424ZM18.7473 16.8964C18.7473 18.7208 18.1083 20.204 17.1087 21.2883C16.2715 22.1954 15.1778 22.8312 13.9937 23.1576C12.8072 23.4866 11.5289 23.5065 10.325 23.1849C8.84693 22.7911 7.47713 21.8714 6.52799 20.3735L3.96145 15.9938L2.41726 13.3393C2.16604 12.9082 2.23754 12.4993 2.46485 12.2127C2.56154 12.0906 2.68342 11.9883 2.81765 11.911C2.95214 11.8339 3.10282 11.7816 3.25223 11.7614H3.25351C3.61865 11.7091 4.01185 11.8513 4.26408 12.2849L4.28184 12.3125L5.50969 14.4261L5.5084 14.4287C5.60381 14.5956 5.74705 14.7176 5.91264 14.7875H5.91649L5.91521 14.7901C6.0798 14.8572 6.2693 14.8748 6.45135 14.8274C6.64088 14.7801 6.79927 14.673 6.91217 14.5282L6.91603 14.5234H6.91732C7.02531 14.3812 7.08935 14.2043 7.08935 14.0124H7.08678L7.0855 3.65578H7.08806C7.08806 3.23948 7.31023 2.9753 7.59155 2.86299C7.707 2.81578 7.83891 2.7933 7.97444 2.7933C8.11124 2.7933 8.24316 2.81578 8.35862 2.86043V2.86299C8.63992 2.9753 8.8621 3.23948 8.8621 3.65578V11.0437C8.8621 11.243 8.9436 11.4225 9.07552 11.5521L9.13339 11.6045C9.2563 11.7042 9.41444 11.7639 9.58776 11.7639H9.6582C9.8503 11.7639 10.0311 11.6866 10.163 11.5572L10.1743 11.5473C10.3024 11.4176 10.3839 11.2405 10.3839 11.0437V2.45181C10.3839 2.03296 10.6048 1.7662 10.8874 1.65418C11.0041 1.60927 11.136 1.58425 11.2703 1.58425C11.406 1.58425 11.5377 1.60927 11.6544 1.65418C11.9357 1.7662 12.1579 2.03296 12.1579 2.45181V11.0437C12.1579 11.2382 12.2397 11.4202 12.3726 11.5521H12.3716C12.4997 11.6792 12.6828 11.7639 12.8826 11.7639H12.9527C13.1513 11.7639 13.3346 11.6843 13.4663 11.5521L13.5115 11.5049C13.6157 11.3801 13.6797 11.2183 13.6797 11.0437H13.6787L13.6774 3.64582H13.6797C13.6797 3.22696 13.9008 2.9628 14.1832 2.85048C14.3002 2.80326 14.4331 2.77826 14.5663 2.77826C14.7018 2.77826 14.8351 2.80326 14.9505 2.85048C15.2318 2.9628 15.4527 3.22696 15.4527 3.64582V11.0437C15.4527 11.2356 15.5329 11.4151 15.6636 11.5473L15.6713 11.5547L15.7001 11.582L15.7039 11.5845C15.8307 11.6969 15.9976 11.7639 16.1797 11.7639H16.2488C16.4471 11.7639 16.6292 11.6843 16.7624 11.5521C16.8917 11.425 16.9745 11.2456 16.9745 11.0437V5.73955C16.9745 5.32326 17.1954 5.05907 17.4767 4.94677L17.4967 4.93937C17.6073 4.89955 17.7328 4.8771 17.8609 4.8771C17.9966 4.8771 18.1296 4.90184 18.2451 4.94677C18.5264 5.05907 18.7473 5.32326 18.7473 5.73955V16.8964Z" stroke="#807D7D" stroke-width="0.6" mask="url(#path-1-outside-1_2613_2677)"/>
</g>
</svg>
